<svg xmlns="http://www.w3.org/2000/svg" version="1.1" xmlns:xlink="http://www.w3.org/1999/xlink" width="512" height="512" x="0" y="0" viewBox="0 0 64 64" style="enable-background:new 0 0 512 512" xml:space="preserve"><g><path d="M59 14h-7v-2h1a1 1 0 0 0 1-1v-1h1a3 3 0 0 0 3-3V2h-2v5a1 1 0 0 1-1 1h-1V7a1 1 0 0 0-1-1H35a1 1 0 0 0-1 1v4a1 1 0 0 0 1 1h1v2H5a3 3 0 0 0-3 3v40a1 1 0 0 0 1 1h4v3a1 1 0 0 0 1 1h10a1 1 0 0 0 1-1v-3h26v3a1 1 0 0 0 1 1h10a1 1 0 0 0 1-1v-3h4a1 1 0 0 0 1-1V17a3 3 0 0 0-3-3zM36 8h16v2H36zm14 4v2h-2v-2zm-4 0v2h-4v-2zm-6 0v2h-2v-2zM17 60H9v-2h8zm38 0h-8v-2h8zm5-4H4v-4h56zM11 45H9v-2h2zm0-20H9v-2h2zm2 25V20h14v30zm16 0V20h4v30zm6 0V20h18v30zm25 0h-5V19a1 1 0 0 0-1-1H12a1 1 0 0 0-1 1v2H8a1 1 0 0 0-1 1v4a1 1 0 0 0 1 1h3v14H8a1 1 0 0 0-1 1v4a1 1 0 0 0 1 1h3v3H4V17a1 1 0 0 1 1-1h54a1 1 0 0 1 1 1z" fill="#FFFFFF" opacity="1" data-original="#000000"></path><path d="M24 22h-8a1 1 0 0 0-1 1v8a1 1 0 0 0 1 1h8a1 1 0 0 0 1-1v-8a1 1 0 0 0-1-1zm-1 8h-6v-6h6zM43.789 37.614l7-9A1 1 0 0 0 50 27h-3.233l2.09-3.485A1 1 0 0 0 48 22h-5a1 1 0 0 0-.874.514l-5 9A1 1 0 0 0 38 33h4v4a1 1 0 0 0 .676.946A1.01 1.01 0 0 0 43 38a1 1 0 0 0 .789-.386zM39.7 31l3.89-7h2.644l-2.09 3.485A1 1 0 0 0 45 29h2.955L44 34.085V32a1 1 0 0 0-1-1zM15 34h10v2H15zM15 38h4v2h-4zM21 38h4v2h-4zM49 46h-2v2h3a1 1 0 0 0 1-1v-6h-2zM43 46h2v2h-2zM39 46h2v2h-2z" fill="#FFFFFF" opacity="1" data-original="#000000"></path></g></svg>