<svg xmlns="http://www.w3.org/2000/svg" version="1.1" xmlns:xlink="http://www.w3.org/1999/xlink" width="512" height="512" x="0" y="0" viewBox="0 0 1.707 1.707" style="enable-background:new 0 0 512 512" xml:space="preserve" fill-rule="evenodd" class=""><g><path fill="#64798A" d="M1.155 1.228H.79a.02.02 0 0 1-.02-.02v-.15a.02.02 0 0 1 .02-.02h.364a.02.02 0 0 1 .02.02v.15a.02.02 0 0 1-.02.02z" opacity="1" data-original="#64798a"></path><g fill="#64798A"><path d="M1.536.477a.02.02 0 0 1-.02-.02v-.21a.02.02 0 0 1 .04 0v.21a.02.02 0 0 1-.02.02zM1.497.8a.06.06 0 0 1-.06-.06.02.02 0 0 1 .04 0 .02.02 0 0 0 .04 0V.634a.02.02 0 0 1 .039 0v.108a.06.06 0 0 1-.06.06z" fill="#64798A" opacity="1" data-original="#64798a"></path></g><path fill="#3A556A" d="M1.583.653H1.49a.04.04 0 0 1-.04-.04V.478a.04.04 0 0 1 .04-.04h.094a.04.04 0 0 1 .04.04v.137a.04.04 0 0 1-.04.04zM.939.592a.02.02 0 0 1-.017-.01L.866.486A.02.02 0 0 1 .873.46l.408-.235a.02.02 0 0 1 .03.019c0 .003 0 .006.002.008l.035.062a.015.015 0 0 0 .007.006.02.02 0 0 1 .001.036L.95.59a.02.02 0 0 1-.01.002z" opacity="1" data-original="#3a556a" class=""></path><path fill="#FCD462" d="M.328.975A.02.02 0 0 1 .31.962L.25.808A.02.02 0 0 1 .26.783L.86.436a.02.02 0 0 1 .028.007l.081.142a.02.02 0 0 1-.007.028l-.624.36a.02.02 0 0 1-.01.002z" opacity="1" data-original="#fcd462" class=""></path><path fill="#3A556A" d="M.35 1.032H.187a.02.02 0 0 1-.02-.02V.8a.02.02 0 0 1 .02-.02H.27a.02.02 0 0 1 .018.013l.082.21a.02.02 0 0 1-.019.028z" opacity="1" data-original="#3a556a" class=""></path><path fill="#F7BE56" d="M.354 1.228H.21a.02.02 0 0 1-.02-.02v-.086a.02.02 0 0 1 .02-.02h.144a.02.02 0 0 1 .02.02v.086a.02.02 0 0 1-.02.02z" opacity="1" data-original="#f7be56"></path><path fill="#FCD462" d="M.448 1.142H.119a.02.02 0 0 1-.02-.02v-.11a.02.02 0 0 1 .02-.02h.329a.02.02 0 0 1 .02.02v.11a.02.02 0 0 1-.02.02z" opacity="1" data-original="#fcd462" class=""></path><path fill="#3A556A" d="M1.155 1.461h-.31a.02.02 0 0 1-.02-.02v-.003a.131.131 0 0 0-.263 0v.003a.02.02 0 0 1-.02.02h-.08a.02.02 0 0 1-.02-.02v-.003a.131.131 0 0 0-.262 0v.003a.02.02 0 0 1-.02.02H.02a.02.02 0 0 1-.02-.02v-.233a.02.02 0 0 1 .02-.02h1.135a.02.02 0 0 1 .02.02v.233a.02.02 0 0 1-.02.02z" opacity="1" data-original="#3a556a" class=""></path><path fill="#344D5F" d="M.89 1.461H.844a.02.02 0 0 1-.02-.02v-.003a.131.131 0 0 0-.262 0v.003a.02.02 0 0 1-.02.02h-.08a.02.02 0 0 1-.02-.02v-.003a.131.131 0 0 0-.262 0v.003a.02.02 0 0 1-.02.02H.114a.199.199 0 0 1 .388-.075.199.199 0 0 1 .388.075z" opacity="1" data-original="#344d5f" class=""></path><path fill="#FCD462" d="M1.362.361a.056.056 0 0 1-.048-.028L1.278.271a.056.056 0 0 1 .02-.076l.157-.09a.056.056 0 0 1 .076.02l.035.062c.008.013.01.028.006.043a.055.055 0 0 1-.026.033l-.156.09a.055.055 0 0 1-.028.008zM1.686 1.461h-.115a.02.02 0 0 1-.02-.02v-.003a.131.131 0 0 0-.262 0v.003a.02.02 0 0 1-.02.02h-.114a.02.02 0 0 1-.02-.02v-.315a.02.02 0 0 1 .02-.02h.373c.098 0 .178.08.178.177v.158a.02.02 0 0 1-.02.02z" opacity="1" data-original="#fcd462" class=""></path><path fill="#FCBF58" d="M1.617 1.461h-.046a.02.02 0 0 1-.02-.02v-.003a.131.131 0 0 0-.262 0v.003a.02.02 0 0 1-.02.02h-.046a.199.199 0 1 1 .394 0z" opacity="1" data-original="#fcbf58" class=""></path><path fill="#FCD462" d="M1.528 1.146h-.373a.02.02 0 0 1-.02-.02V.83a.02.02 0 0 1 .02-.02h.202a.02.02 0 0 1 .017.01l.172.296a.02.02 0 0 1-.018.03z" opacity="1" data-original="#fcd462" class=""></path><path fill="#EBF0F3" d="M1.671 1.29h-.035a.05.05 0 0 1-.05-.05v-.037c0-.008.006-.014.014-.014h.048c.004 0 .009.002.011.005a.124.124 0 0 1 .026.077v.005a.014.014 0 0 1-.014.014z" opacity="1" data-original="#ebf0f3"></path><path fill="#27A2DB" d="M1.175 1.106h.319L1.345.85h-.17z" opacity="1" data-original="#27a2db"></path><g fill="#50B3E2"><path d="m1.365.885-.02-.034-.17.17v.055zM1.206 1.106h.097l.12-.12-.035-.062z" fill="#50B3E2" opacity="1" data-original="#50b3e2" class=""></path></g><path fill="#5D707F" d="M.31 1.61a.172.172 0 1 1 .001-.344.172.172 0 0 1 0 .344z" opacity="1" data-original="#5d707f" class=""></path><path fill="#F2F0F0" d="M.31 1.54a.102.102 0 1 1 0-.204.102.102 0 0 1 0 .204z" opacity="1" data-original="#f2f0f0"></path><path fill="#5D707F" d="M.693 1.61a.172.172 0 1 1 0-.344.172.172 0 0 1 0 .344z" opacity="1" data-original="#5d707f" class=""></path><path fill="#F2F0F0" d="M.693 1.54a.102.102 0 1 1 0-.204.102.102 0 0 1 0 .204z" opacity="1" data-original="#f2f0f0"></path><path fill="#5D707F" d="M1.42 1.61a.172.172 0 1 1 0-.344.172.172 0 0 1 0 .344z" opacity="1" data-original="#5d707f" class=""></path><path fill="#F2F0F0" d="M1.42 1.54a.102.102 0 1 1 0-.204.102.102 0 0 1 0 .204z" opacity="1" data-original="#f2f0f0"></path></g></svg>